<svg width="20" height="21" viewBox="0 0 20 21"  xmlns="http://www.w3.org/2000/svg">
<path d="M13.9062 5.57812C14.2188 5.42188 14.5052 5.47396 14.7656 5.73438C15.026 5.99479 15.0781 6.28125 14.9219 6.59375L12.3438 12.2188C12.2135 12.5052 12.0052 12.7135 11.7188 12.8438L6.09375 15.4219C5.78125 15.5781 5.49479 15.526 5.23438 15.2656C4.97396 15.0052 4.92188 14.7188 5.07812 14.4062L7.65625 8.78125C7.78646 8.49479 7.99479 8.28646 8.28125 8.15625L13.9062 5.57812ZM10 11.75C10.3385 11.75 10.625 11.6328 10.8594 11.3984C11.1198 11.138 11.25 10.8385 11.25 10.5C11.25 10.1615 11.1198 9.875 10.8594 9.64062C10.625 9.38021 10.3385 9.25 10 9.25C9.66146 9.25 9.36198 9.38021 9.10156 9.64062C8.86719 9.875 8.75 10.1615 8.75 10.5C8.75 10.8385 8.86719 11.138 9.10156 11.3984C9.36198 11.6328 9.66146 11.75 10 11.75ZM3.125 3.66406C5.02604 1.76302 7.31771 0.8125 10 0.8125C12.6823 0.8125 14.9609 1.76302 16.8359 3.66406C18.737 5.53906 19.6875 7.81771 19.6875 10.5C19.6875 13.1823 18.737 15.474 16.8359 17.375C14.9609 19.25 12.6823 20.1875 10 20.1875C7.31771 20.1875 5.02604 19.25 3.125 17.375C1.25 15.474 0.3125 13.1823 0.3125 10.5C0.3125 7.81771 1.25 5.53906 3.125 3.66406ZM4.45312 16.0469C5.98958 17.5573 7.83854 18.3125 10 18.3125C12.1615 18.3125 13.9974 17.5573 15.5078 16.0469C17.0443 14.5104 17.8125 12.6615 17.8125 10.5C17.8125 8.33854 17.0443 6.5026 15.5078 4.99219C13.9974 3.45573 12.1615 2.6875 10 2.6875C7.83854 2.6875 5.98958 3.45573 4.45312 4.99219C2.94271 6.5026 2.1875 8.33854 2.1875 10.5C2.1875 12.6615 2.94271 14.5104 4.45312 16.0469Z"/>
</svg>
