<svg width="21" height="21" viewBox="0 0 21 21" xmlns="http://www.w3.org/2000/svg">
<path d="M19.7812 9.1875H12.1875V1.59375C12.1875 1.17188 11.7656 0.75 11.3438 0.75H9.65625C9.18164 0.75 8.8125 1.17188 8.8125 1.59375V9.1875H1.21875C0.744141 9.1875 0.375 9.60938 0.375 10.0312V11.7188C0.375 12.1934 0.744141 12.5625 1.21875 12.5625H8.8125V20.1562C8.8125 20.6309 9.18164 21 9.65625 21H11.3438C11.7656 21 12.1875 20.6309 12.1875 20.1562V12.5625H19.7812C20.2031 12.5625 20.625 12.1934 20.625 11.7188V10.0312C20.625 9.60938 20.2031 9.1875 19.7812 9.1875Z"/>
</svg>
