<svg width="14" height="19" viewBox="0 0 14 19" fill="none" xmlns="http://www.w3.org/2000/svg">
<path d="M11.0078 6.82422L10.7969 5.3125H11.7812C12.2383 5.3125 12.625 4.96094 12.625 4.46875V1.09375C12.625 0.636719 12.2383 0.25 11.7812 0.25H2.21875C1.72656 0.25 1.375 0.636719 1.375 1.09375V4.46875C1.375 4.96094 1.72656 5.3125 2.21875 5.3125H3.16797L2.95703 6.82422C1.26953 7.98438 0.25 9.77734 0.25 11.7812C0.25 12.2734 0.601562 12.625 1.09375 12.625H6.15625V16.2812C6.15625 16.3164 6.15625 16.3516 6.15625 16.3867L6.71875 18.0742C6.78906 18.3203 7.17578 18.3203 7.24609 18.0742L7.80859 16.3867C7.80859 16.3516 7.84375 16.3164 7.84375 16.2812V12.625H12.9062C13.3633 12.625 13.75 12.2734 13.75 11.7812C13.75 9.77734 12.6953 7.98438 11.0078 6.82422ZM2.00781 10.9375C2.28906 9.60156 3.27344 8.47656 4.53906 7.87891L5.10156 3.625H3.0625V1.9375H10.9375V3.625H8.89844L9.46094 7.87891C10.6914 8.47656 11.6758 9.60156 11.957 10.9375H2.00781Z" fill="#0E65DD"/>
</svg>
