<svg width="14" height="19" viewBox="0 0 14 19" xmlns="http://www.w3.org/2000/svg">
<path fill-rule="evenodd" clip-rule="evenodd" d="M10.7969 5.3125L11.0078 6.82422C12.6953 7.98438 13.75 9.77734 13.75 11.7812C13.75 12.2734 13.3633 12.625 12.9062 12.625H7.84375V16.2812C7.84375 16.2988 7.83495 16.3164 7.82615 16.334C7.81737 16.3516 7.80859 16.3692 7.80859 16.3867L7.24609 18.0742C7.17578 18.3203 6.78906 18.3203 6.71875 18.0742L6.15625 16.3867V16.2812V12.625H1.09375C0.601562 12.625 0.25 12.2734 0.25 11.7812C0.25 9.77734 1.26953 7.98438 2.95703 6.82422L3.16797 5.3125H2.21875C1.72656 5.3125 1.375 4.96094 1.375 4.46875V1.09375C1.375 0.636719 1.72656 0.25 2.21875 0.25H11.7812C12.2383 0.25 12.625 0.636719 12.625 1.09375V4.46875C12.625 4.96094 12.2383 5.3125 11.7812 5.3125H10.7969Z" />
</svg>
