<svg width="97" height="97" viewBox="0 0 97 97"  xmlns="http://www.w3.org/2000/svg">
<path d="M48.5 18.8125C38.1484 18.8125 29.75 27.2109 29.75 37.5625C29.75 47.9141 38.1484 56.3125 48.5 56.3125C58.8516 56.3125 67.25 47.9141 67.25 37.5625C67.25 27.2109 58.8516 18.8125 48.5 18.8125ZM48.5 46.9375C43.2266 46.9375 39.125 42.8359 39.125 37.5625C39.125 32.4844 43.2266 28.1875 48.5 28.1875C53.5781 28.1875 57.875 32.4844 57.875 37.5625C57.875 42.8359 53.5781 46.9375 48.5 46.9375ZM48.5 0.0625C21.7422 0.0625 0.0625 21.7422 0.0625 48.5C0.0625 75.2578 21.7422 96.9375 48.5 96.9375C75.2578 96.9375 96.9375 75.2578 96.9375 48.5C96.9375 21.7422 75.2578 0.0625 48.5 0.0625ZM48.5 87.5625C38.7344 87.5625 29.75 84.0469 22.9141 78.1875C25.8438 73.6953 30.9219 70.5703 36.5859 70.5703C40.6875 71.7422 44.5938 72.3281 48.5 72.3281C52.2109 72.3281 56.1172 71.7422 60.2188 70.5703C65.8828 70.7656 70.9609 73.6953 73.8906 78.1875C67.0547 84.0469 58.0703 87.5625 48.5 87.5625ZM80.1406 71.1562C75.4531 65.1016 68.0312 61 59.6328 61C57.6797 61 54.5547 62.9531 48.5 62.9531C42.25 62.9531 39.125 61 37.1719 61C28.7734 61 21.3516 65.1016 16.6641 71.1562C11.9766 64.9062 9.4375 57.0938 9.4375 48.5C9.4375 27.0156 26.8203 9.4375 48.5 9.4375C69.9844 9.4375 87.5625 27.0156 87.5625 48.5C87.5625 57.0938 84.8281 64.9062 80.1406 71.1562Z" />
</svg>
