<svg width="74" height="74" viewBox="0 0 74 74" xmlns="http://www.w3.org/2000/svg">
    <path d="M36.9509 0C16.5385 0 0 16.6875 0 36.9509C0 57.363 16.5385 73.9018 36.9509 73.9018C57.2143 73.9018 73.9018 57.363 73.9018 36.9509C73.9018 16.6875 57.2143 0 36.9509 0ZM57.959 15.9428C68.8359 26.8192 69.4319 43.8047 60.343 55.4263L18.4754 13.5588C30.0971 4.46986 47.0826 5.06585 57.959 15.9428ZM15.7935 58.1083C4.91685 47.2313 4.32087 30.2463 13.4096 18.6242L55.2776 60.4922C43.6557 69.5812 26.6702 68.9852 15.7935 58.1083Z"/>
</svg>
