<svg width="18" height="18" viewBox="0 0 18 18" xmlns="http://www.w3.org/2000/svg">
<path d="M9 0.53125C4.18359 0.53125 0.28125 4.46875 0.28125 9.25C0.28125 14.0664 4.18359 17.9688 9 17.9688C13.7812 17.9688 17.7188 14.0664 17.7188 9.25C17.7188 4.46875 13.7812 0.53125 9 0.53125ZM9 2.21875C12.8672 2.21875 16.0312 5.38281 16.0312 9.25C16.0312 13.1523 12.8672 16.2812 9 16.2812C5.09766 16.2812 1.96875 13.1523 1.96875 9.25C1.96875 5.38281 5.09766 2.21875 9 2.21875ZM13.9219 6.82422L13.1133 6.01562C12.9727 5.83984 12.6914 5.83984 12.5156 6.01562L7.55859 10.9375L5.44922 8.82812C5.27344 8.65234 5.02734 8.65234 4.85156 8.82812L4.04297 9.60156C3.90234 9.77734 3.90234 10.0586 4.04297 10.1992L7.24219 13.4336C7.41797 13.6094 7.66406 13.6094 7.83984 13.4336L13.9219 7.42188C14.0625 7.24609 14.0625 6.96484 13.9219 6.82422Z" />
</svg>
