<svg width="12" height="12" viewBox="0 0 12 12" xmlns="http://www.w3.org/2000/svg">
    <path d="M7.53125 6L10.875 9.375C11.125 9.60417 11.125 9.83333 10.875 10.0625L10.0938 10.8438C9.86458 11.0938 9.63542 11.0938 9.40625 10.8438L6.03125 7.5L2.65625 10.8438C2.42708 11.0938 2.19792 11.0938 1.96875 10.8438L1.1875 10.0625C0.9375 9.83333 0.9375 9.60417 1.1875 9.375L4.53125 6L1.1875 2.625C0.9375 2.39583 0.9375 2.16667 1.1875 1.9375L1.96875 1.15625C2.19792 0.90625 2.42708 0.90625 2.65625 1.15625L6.03125 4.5L9.40625 1.15625C9.63542 0.90625 9.86458 0.90625 10.0938 1.15625L10.875 1.9375C11.125 2.16667 11.125 2.39583 10.875 2.625L7.53125 6Z"/>
</svg>
