<svg width="24" height="32" viewBox="0 0 24 32" fill="none" xmlns="http://www.w3.org/2000/svg">
<path d="M23.125 6.125C23.7083 6.70833 24 7.41667 24 8.25V29C24 29.8333 23.7083 30.5417 23.125 31.125C22.5417 31.7083 21.8333 32 21 32H3C2.16667 32 1.45833 31.7083 0.875 31.125C0.291667 30.5417 0 29.8333 0 29V3C0 2.16667 0.291667 1.45833 0.875 0.875C1.45833 0.291667 2.16667 0 3 0H15.75C16.5833 0 17.2917 0.291667 17.875 0.875L23.125 6.125ZM21.6875 7.5625L16.4375 2.3125C16.3125 2.1875 16.1667 2.08333 16 2V8H22C21.9167 7.83333 21.8125 7.6875 21.6875 7.5625ZM21 30C21.2917 30 21.5208 29.8958 21.6875 29.6875C21.8958 29.5208 22 29.2917 22 29V10H15.5C15.0833 10 14.7292 9.85417 14.4375 9.5625C14.1458 9.27083 14 8.91667 14 8.5V2H3C2.70833 2 2.45833 2.10417 2.25 2.3125C2.08333 2.47917 2 2.70833 2 3V29C2 29.2917 2.08333 29.5208 2.25 29.6875C2.45833 29.8958 2.70833 30 3 30H21ZM18 14.75V15.25C18 15.75 17.75 16 17.25 16H6.75C6.25 16 6 15.75 6 15.25V14.75C6 14.25 6.25 14 6.75 14H17.25C17.75 14 18 14.25 18 14.75ZM18 18.75V19.25C18 19.75 17.75 20 17.25 20H6.75C6.25 20 6 19.75 6 19.25V18.75C6 18.25 6.25 18 6.75 18H17.25C17.75 18 18 18.25 18 18.75ZM18 22.75V23.25C18 23.75 17.75 24 17.25 24H6.75C6.25 24 6 23.75 6 23.25V22.75C6 22.25 6.25 22 6.75 22H17.25C17.75 22 18 22.25 18 22.75Z" fill="#0E65DD"/>
</svg>
