<svg width="16" height="21" viewBox="0 0 16 21"  xmlns="http://www.w3.org/2000/svg">
<path d="M11.75 10.1875V11.2812C11.75 11.5938 11.5938 11.75 11.2812 11.75H4.71875C4.40625 11.75 4.25 11.5938 4.25 11.2812V10.1875C4.25 9.875 4.40625 9.71875 4.71875 9.71875H11.2812C11.5938 9.71875 11.75 9.875 11.75 10.1875ZM11.2812 13C11.5938 13 11.75 13.1562 11.75 13.4688V14.5625C11.75 14.875 11.5938 15.0312 11.2812 15.0312H4.71875C4.40625 15.0312 4.25 14.875 4.25 14.5625V13.4688C4.25 13.1562 4.40625 13 4.71875 13H11.2812ZM15.5 5.65625V18.625C15.5 19.1458 15.3177 19.5885 14.9531 19.9531C14.5885 20.3177 14.1458 20.5 13.625 20.5H2.375C1.85417 20.5 1.41146 20.3177 1.04688 19.9531C0.682292 19.5885 0.5 19.1458 0.5 18.625V2.375C0.5 1.85417 0.682292 1.41146 1.04688 1.04688C1.41146 0.682292 1.85417 0.5 2.375 0.5H10.3438C10.8646 0.5 11.3073 0.682292 11.6719 1.04688L14.9531 4.32812C15.3177 4.69271 15.5 5.13542 15.5 5.65625ZM10.5 2.53125V5.5H13.4688L10.5 2.53125ZM13.625 18.625V7.375H9.5625C9.30208 7.375 9.08073 7.28385 8.89844 7.10156C8.71615 6.91927 8.625 6.69792 8.625 6.4375V2.375H2.375V18.625H13.625Z"/>
</svg>
