<svg width="24" height="23" viewBox="0 0 24 23"  xmlns="http://www.w3.org/2000/svg">
<path d="M22.1836 3.92969C22.7565 4.5026 23.043 5.1901 23.043 5.99219C23.043 6.79427 22.7565 7.48177 22.1836 8.05469L8.64844 21.6758L2.24609 22.75C1.90234 22.8073 1.60156 22.707 1.34375 22.4492C1.08594 22.1914 0.985677 21.8906 1.04297 21.5469L2.11719 15.1445L15.7383 1.60938C16.3112 1.03646 16.9987 0.75 17.8008 0.75C18.6029 0.75 19.2904 1.03646 19.8633 1.60938L22.1836 3.92969ZM10.3242 14.4141C10.0664 14.4141 9.83724 14.3281 9.63672 14.1562C9.46484 13.9557 9.37891 13.7266 9.37891 13.4688C9.37891 13.2109 9.46484 12.9818 9.63672 12.7812L14.75 7.66797L13.5469 6.46484L6.24219 13.7266H8.00391V15.7891H10.0664V17.5508L17.3281 10.2461L16.125 9.04297L11.0117 14.1562C10.8112 14.3281 10.582 14.4141 10.3242 14.4141ZM4.56641 20.4297L7.74609 19.9141L8.51953 19.1406V17.3359H6.45703V15.2734H4.65234L3.87891 16.0469L3.36328 19.2266L4.56641 20.4297ZM20.8516 6.72266C21.0521 6.52214 21.1523 6.27865 21.1523 5.99219C21.1523 5.70573 21.0378 5.46224 20.8086 5.26172L18.5312 2.94141C18.3307 2.74089 18.0872 2.64062 17.8008 2.64062C17.5143 2.64062 17.2708 2.74089 17.0703 2.94141L15.0078 5.00391L18.7891 8.78516L20.8516 6.72266Z"/>
</svg>
