<svg width="26" height="21" viewBox="0 0 26 21" fill="none" xmlns="http://www.w3.org/2000/svg">
<path d="M25.2891 11.8242L23.3125 4.00391C23.0547 2.97266 22.4102 2.11328 21.4648 1.59766C20.5625 1.125 19.4453 0.996094 18.457 1.33984L17.8125 1.55469C17.4258 1.68359 17.2539 2.07031 17.3828 2.41406L17.5977 3.10156C17.7266 3.44531 18.1133 3.61719 18.457 3.53125L19.0156 3.31641C19.4883 3.1875 20.0039 3.1875 20.4336 3.40234C20.9062 3.61719 21.207 4.04688 21.3359 4.51953L22.9688 11.1367C22.0234 10.8359 20.8203 10.5781 19.4883 10.5781C17.7695 10.5781 15.793 10.9648 13.7734 12.125H12.1836C10.1641 10.9648 8.1875 10.5781 6.46875 10.5781C5.13672 10.5781 3.93359 10.8359 2.98828 11.1367L4.62109 4.51953C4.75 4.04688 5.05078 3.61719 5.52344 3.40234C5.95312 3.1875 6.46875 3.1875 6.94141 3.31641L7.5 3.53125C7.84375 3.61719 8.23047 3.44531 8.35938 3.10156L8.57422 2.41406C8.70312 2.07031 8.53125 1.68359 8.14453 1.55469L7.5 1.33984C6.51172 0.996094 5.39453 1.125 4.49219 1.59766C3.54688 2.11328 2.90234 2.97266 2.64453 4.00391L0.667969 11.8242C0.625 11.9961 0.625 12.2969 0.625 12.4688V15.5195C0.625 18.2266 2.81641 20.375 5.56641 20.375H7.15625C9.73438 20.375 11.8828 18.4414 12.0977 15.8633L12.2266 14.1875H13.7305L13.8594 15.8633C14.0742 18.4414 16.2227 20.375 18.8008 20.375H20.3906C23.1406 20.375 25.375 18.2266 25.375 15.5195V12.4688C25.375 12.2539 25.332 12.0391 25.2891 11.8242ZM10.0352 15.6914C9.90625 17.1953 8.66016 18.3125 7.15625 18.3125H5.56641C3.97656 18.3125 2.6875 17.0664 2.6875 15.5195V13.4141C3.50391 13.0703 4.87891 12.6406 6.46875 12.6406C7.75781 12.6406 9.00391 12.8984 10.207 13.457L10.0352 15.6914ZM23.3125 15.5195C23.3125 17.0664 21.9805 18.3125 20.3906 18.3125H18.8008C17.2969 18.3125 16.0508 17.1953 15.9219 15.6914L15.75 13.457C16.9531 12.8984 18.1992 12.6406 19.4883 12.6406C21.0781 12.6406 22.4531 13.0703 23.3125 13.4141V15.5195Z" fill="#0E65DD"/>
</svg>
