<svg width="14" height="11" viewBox="0 0 14 11" fill="none" xmlns="http://www.w3.org/2000/svg">
<path d="M0.4375 2.25H11.8125C12.0312 2.25 12.25 2.05859 12.25 1.8125V0.9375C12.25 0.71875 12.0312 0.5 11.8125 0.5H0.4375C0.191406 0.5 0 0.71875 0 0.9375V1.8125C0 2.05859 0.191406 2.25 0.4375 2.25ZM13.5625 4.875H2.1875C1.94141 4.875 1.75 5.09375 1.75 5.3125V6.1875C1.75 6.43359 1.94141 6.625 2.1875 6.625H13.5625C13.7812 6.625 14 6.43359 14 6.1875V5.3125C14 5.09375 13.7812 4.875 13.5625 4.875ZM11.8125 9.25H0.4375C0.191406 9.25 0 9.46875 0 9.6875V10.5625C0 10.8086 0.191406 11 0.4375 11H11.8125C12.0312 11 12.25 10.8086 12.25 10.5625V9.6875C12.25 9.46875 12.0312 9.25 11.8125 9.25Z" fill="#77889C"/>
</svg>
