<svg width="343" height="343" viewBox="0 0 343 343" xmlns="http://www.w3.org/2000/svg">
<path d="M214.375 32.1562C267.3 32.1562 310.844 75.7012 310.844 128.625C310.844 182.219 267.3 225.094 214.375 225.094C201.646 225.094 188.918 223.083 178.199 218.395L150.062 246.531H128.625V278.688H96.4688V310.844H32.1562V246.531L121.926 156.762C119.246 148.053 117.906 138.674 117.906 129.295C117.906 129.295 117.906 129.295 117.906 128.625C117.906 75.7012 160.781 32.1562 214.375 32.1562ZM214.375 0C142.693 0 85.75 57.6133 85.75 128.625C85.75 134.654 85.75 140.684 86.4199 146.713L4.68945 229.113C1.33984 231.793 0 235.812 0 240.503V326.922C0 336.301 6.69922 343 16.0781 343H112.547C121.256 343 128.625 336.301 128.625 326.922V310.844H144.703C153.412 310.844 160.781 304.145 160.781 294.766V281.367L187.578 254.57C196.287 256.581 204.996 257.25 214.375 257.25C285.387 257.25 343 200.307 343 128.625C343 57.6133 285.387 0 214.375 0ZM214.375 96.4688C214.375 114.557 228.442 128.625 246.531 128.625C263.949 128.625 278.688 114.557 278.688 96.4688C278.688 79.0508 263.949 64.3125 246.531 64.3125C228.442 64.3125 214.375 79.0508 214.375 96.4688Z" />
</svg>
