<svg width="16" height="19" viewBox="0 0 16 19"  xmlns="http://www.w3.org/2000/svg">
<path d="M14.1875 8.6875H4.625V5.38281C4.625 3.51953 6.10156 1.97266 7.96484 1.9375C9.82812 1.9375 11.375 3.44922 11.375 5.3125V6.15625C11.375 6.64844 11.7266 7 12.2188 7C12.6758 7 13.0625 6.64844 13.0625 6.15625V5.38281C13.0625 2.57031 10.8125 0.285156 8 0.25C5.1875 0.25 2.9375 2.53516 2.9375 5.3125V8.6875H1.8125C0.863281 8.6875 0.125 9.46094 0.125 10.375V16.5625C0.125 17.5117 0.863281 18.25 1.8125 18.25H14.1875C15.1016 18.25 15.875 17.5117 15.875 16.5625V10.375C15.875 9.46094 15.1016 8.6875 14.1875 8.6875ZM14.1875 16.5625H1.8125V10.375H14.1875V16.5625Z" />
</svg>
