<svg width="23" height="18" viewBox="0 0 23 18"  xmlns="http://www.w3.org/2000/svg">
<path d="M11.6875 2.5625C11.6875 1.64583 12.1029 1.01562 12.9336 0.671875C13.793 0.299479 14.5521 0.442708 15.2109 1.10156L21.3984 7.28906C21.6562 7.54688 21.8281 7.86198 21.9141 8.23438C22.0286 8.57812 22.0286 8.9362 21.9141 9.30859C21.8281 9.65234 21.6562 9.95312 21.3984 10.2109L15.2109 16.3984C14.5521 17.0286 13.793 17.1719 12.9336 16.8281C12.1029 16.4844 11.6875 15.8542 11.6875 14.9375V12.7031H7.5625C6.98958 12.7031 6.5026 12.5026 6.10156 12.1016C5.70052 11.7005 5.5 11.2135 5.5 10.6406V6.85938C5.5 6.28646 5.70052 5.79948 6.10156 5.39844C6.5026 4.9974 6.98958 4.79688 7.5625 4.79688H11.6875V2.5625ZM19.9375 8.75L13.75 2.5625V6.85938H7.5625V10.6406H13.75V14.9375L19.9375 8.75ZM4.125 0.5H7.73438C8.07812 0.5 8.25 0.671875 8.25 1.01562V2.04688C8.25 2.39062 8.07812 2.5625 7.73438 2.5625H4.125C3.55208 2.5625 3.0651 2.76302 2.66406 3.16406C2.26302 3.5651 2.0625 4.05208 2.0625 4.625V12.875C2.0625 13.4479 2.26302 13.9349 2.66406 14.3359C3.0651 14.737 3.55208 14.9375 4.125 14.9375H7.73438C8.07812 14.9375 8.25 15.1094 8.25 15.4531V16.4844C8.25 16.8281 8.07812 17 7.73438 17H4.125C2.97917 17 2.00521 16.599 1.20312 15.7969C0.401042 14.9948 0 14.0208 0 12.875V4.625C0 3.47917 0.401042 2.50521 1.20312 1.70312C2.00521 0.901042 2.97917 0.5 4.125 0.5Z"/>
</svg>
