<svg width="32" height="46" viewBox="0 0 32 46"  xmlns="http://www.w3.org/2000/svg">
<path fill-rule="evenodd" clip-rule="evenodd" d="M8.07583 43.9262C7.96238 44.5912 8.39072 45.2352 9.03114 45.3617C13.8254 46.3073 19.1201 46.1112 22.5184 45.3563C23.5581 45.1257 23.8182 43.6823 22.8965 43.0878C22.172 42.6206 22.2684 43.1443 18.2596 43.4315C15.2359 43.6484 12.2812 43.4776 9.47812 42.9249C9.17167 42.8639 8.86012 42.9277 8.60123 43.1038C8.3249 43.2913 8.13349 43.5911 8.07602 43.926L8.07583 43.9262" fill="white"/>
<path fill-rule="evenodd" clip-rule="evenodd" d="M19.1721 38.2583C20.3955 38.1707 22.2238 38.0089 23.9676 37.6179C24.6378 37.4683 25.2522 37.9358 25.3787 38.5875C25.5089 39.2564 25.0974 39.9154 24.4615 40.0566C20.8489 40.8594 14.1557 41.3669 7.54077 40.0619C6.9021 39.936 6.47599 39.2875 6.59102 38.6162C6.99072 36.2826 9.25738 38.9689 19.1721 38.2583" fill="white"/>
<path fill-rule="evenodd" clip-rule="evenodd" d="M15.9952 0.00558326C24.7851 -0.224296 32 6.72501 32 15.3772C32 23.7568 25.5729 27.1579 25.5729 32.4792V33.4629C25.5729 35.1624 22.9704 35.1607 22.9704 33.4629V32.4792C22.9704 25.9781 29.3974 23.0805 29.3974 15.3772C29.3974 1.95836 10.9223 -2.17177 4.38148 8.93071C1.98811 12.9931 1.98338 17.8843 4.36897 22.0146C7.57361 27.5648 9.02965 28.2314 9.02965 33.4629C9.02965 35.1624 6.42697 35.1607 6.42697 33.4629V32.4792C6.42697 27.1554 0 23.7551 0 15.3772C0 6.70645 7.23824 -0.224844 15.9952 0.00558326" fill="white"/>
<path fill-rule="evenodd" clip-rule="evenodd" d="M22.6074 15.0322C22.8697 12.4263 21.6166 9.81178 19.0451 8.63971C15.2207 6.89669 10.7771 9.33346 10.2338 13.438C10.0094 15.1331 10.5036 16.8035 11.563 18.1012C11.9691 18.5986 12.7071 18.6773 13.2117 18.2765C13.7161 17.8758 13.7957 17.1477 13.3894 16.6501C11.1929 13.9597 13.4523 9.97106 16.9332 10.4194C19.5007 10.75 21.3295 13.5976 19.6898 16.2139C18.9514 17.3922 15.9362 21.9885 15.7885 23.1243C15.7885 23.1249 15.4113 25.9715 15.4113 25.9715C15.3183 26.6725 15.8129 27.3104 16.5187 27.4012C17.2617 27.4969 17.9039 26.9526 17.9656 26.2626C18.4863 22.5447 18.1081 23.4743 20.6411 19.4575C21.5025 18.0916 22.4424 16.6724 22.6074 15.0322" fill="#FFCA00"/>
<path fill-rule="evenodd" clip-rule="evenodd" d="M16.388 33.0654C17.2365 33.0654 17.9244 32.3939 17.9244 31.5654C17.9244 30.737 17.2365 30.0654 16.388 30.0654C15.5394 30.0654 14.8516 30.737 14.8516 31.5654C14.8516 32.3939 15.5394 33.0654 16.388 33.0654Z" fill="#FFCA00"/>
</svg>
