<svg width="18" height="24" viewBox="0 0 18 24" fill="none" xmlns="http://www.w3.org/2000/svg">
<path d="M15.1589 7.69125L14.5798 21.5892C14.5754 21.6932 14.4743 21.7899 14.3666 21.7899H3.94962C3.84389 21.7899 3.74058 21.691 3.7364 21.5892L3.15727 7.69125C3.13194 7.08133 2.61694 6.60749 2.00702 6.63281C1.3971 6.65836 0.923256 7.17336 0.948801 7.78305L1.5277 21.681C1.58145 22.9676 2.65968 24.0001 3.94961 24.0001H14.3666C15.6583 24.0001 16.7345 22.9698 16.7883 21.681L17.3674 7.78305C17.3927 7.17336 16.9189 6.65835 16.3092 6.63281C15.6993 6.60747 15.1843 7.08128 15.1589 7.69125Z" fill="#0E65DD"/>
<path d="M8.36844 8.68448V19.4212C8.36844 19.8571 8.72176 20.2107 9.1579 20.2107C9.59383 20.2107 9.94737 19.8571 9.94737 19.4212V8.68448C9.94737 8.24856 9.59383 7.89502 9.1579 7.89502C8.72176 7.89502 8.36844 8.24856 8.36844 8.68448Z" fill="#0E65DD"/>
<path d="M4.73747 8.70772L5.05335 19.4444C5.06612 19.8804 5.4298 20.2231 5.86548 20.2103C6.30141 20.1975 6.64434 19.8339 6.63138 19.398L6.31572 8.66126C6.30294 8.22555 5.93927 7.88257 5.50336 7.89537C5.06766 7.90814 4.72467 8.27182 4.73747 8.70772Z" fill="#0E65DD"/>
<path d="M12.0005 8.66126L11.6846 19.398C11.6719 19.8339 12.0148 20.1976 12.4505 20.2103C12.8865 20.2231 13.2501 19.8804 13.2629 19.4444L13.5788 8.70772C13.5915 8.2718 13.2486 7.90811 12.8129 7.89537C12.377 7.88259 12.0133 8.22556 12.0005 8.66126Z" fill="#0E65DD"/>
<path d="M1.10536 5.52642H16.8946C17.505 5.52642 18 5.03168 18 4.42128C18 3.81088 17.505 3.31592 16.8946 3.31592H1.10536C0.494994 3.31592 0 3.81087 0 4.42128C0 5.03169 0.494955 5.52642 1.10536 5.52642Z" fill="#0E65DD"/>
<path d="M6.9147 3.89977L7.23961 2.59947C7.28608 2.41399 7.54645 2.21068 7.73588 2.21068H10.2647C10.4545 2.21068 10.7145 2.41378 10.7609 2.59947L11.0858 3.89977L13.2304 3.36362L12.9053 2.06332C12.613 0.893898 11.4691 0 10.2646 0H7.73588C6.53144 0 5.38751 0.894519 5.09523 2.06332L4.77011 3.36362L6.9147 3.89977Z" fill="#0E65DD"/>
</svg>
