<svg width="12" height="13" viewBox="0 0 12 13" fill="none" xmlns="http://www.w3.org/2000/svg">
<path d="M11.3203 1.17969L10.1016 2.39844C9.04688 1.34375 7.59375 0.6875 6 0.6875C2.78906 0.6875 0.164062 3.3125 0.1875 6.52344C0.1875 9.73438 2.78906 12.3125 6 12.3125C7.47656 12.3125 8.85938 11.75 9.89062 10.8359C10.0078 10.7188 10.0078 10.5312 9.89062 10.4141L9.42188 9.94531C9.32812 9.85156 9.16406 9.85156 9.04688 9.94531C8.22656 10.6719 7.17188 11.0938 6 11.0938C3.44531 11.0938 1.40625 9.05469 1.40625 6.5C1.40625 3.96875 3.44531 1.90625 6 1.90625C7.26562 1.90625 8.41406 2.42188 9.23438 3.26562L7.96875 4.53125C7.78125 4.71875 7.92188 5 8.15625 5H11.5312C11.6719 5 11.8125 4.88281 11.8125 4.71875V1.36719C11.8125 1.13281 11.5078 0.992188 11.3203 1.17969Z" fill="#0E6CDD"/>
</svg>
