<svg width="15" height="16" viewBox="0 0 15 16"  xmlns="http://www.w3.org/2000/svg">
<path d="M8.58594 6.16406C8.28516 5.86328 7.95703 5.64453 7.60156 5.45312C7.46484 5.39844 7.32812 5.42578 7.21875 5.53516L7.10938 5.64453C6.86328 5.86328 6.72656 6.16406 6.69922 6.46484C6.67188 6.60156 6.75391 6.73828 6.86328 6.82031C7.05469 6.90234 7.35547 7.09375 7.49219 7.25781C8.39453 8.16016 8.39453 9.60938 7.49219 10.5117L5.44141 12.5625C4.53906 13.4648 3.08984 13.4648 2.1875 12.5625C1.28516 11.6602 1.28516 10.2109 2.1875 9.30859L3.44531 8.05078C3.52734 7.96875 3.55469 7.85938 3.52734 7.75C3.47266 7.47656 3.41797 7.01172 3.39062 6.71094C3.39062 6.4375 3.03516 6.30078 2.84375 6.49219C2.51562 6.82031 1.99609 7.33984 1.12109 8.21484C-0.382812 9.71875 -0.382812 12.1523 1.12109 13.6289C2.59766 15.1328 5.03125 15.1328 6.53516 13.6289C8.77734 11.3867 8.66797 11.4961 8.83203 11.2773C10.0625 9.80078 9.98047 7.55859 8.58594 6.16406ZM12.8516 1.89844C11.375 0.394531 8.94141 0.394531 7.4375 1.89844C5.19531 4.14062 5.30469 4.03125 5.14062 4.25C3.91016 5.72656 3.99219 7.96875 5.38672 9.36328C5.6875 9.66406 6.01562 9.88281 6.37109 10.0742C6.50781 10.1289 6.64453 10.1016 6.75391 9.99219L6.86328 9.88281C7.10938 9.66406 7.24609 9.36328 7.27344 9.0625C7.30078 8.92578 7.21875 8.78906 7.10938 8.70703C6.91797 8.625 6.61719 8.43359 6.48047 8.26953C5.57812 7.36719 5.57812 5.91797 6.48047 5.01562L8.53125 2.96484C9.43359 2.0625 10.8828 2.0625 11.7852 2.96484C12.6875 3.86719 12.6875 5.31641 11.7852 6.21875L10.5273 7.47656C10.4453 7.55859 10.418 7.66797 10.4453 7.77734C10.5 8.05078 10.5547 8.51562 10.582 8.81641C10.582 9.08984 10.9375 9.22656 11.1289 9.03516C11.457 8.70703 11.9766 8.1875 12.8516 7.3125C14.3555 5.80859 14.3555 3.375 12.8516 1.89844Z" />
</svg>
