<svg width="24" height="24" viewBox="0 0 24 24"  xmlns="http://www.w3.org/2000/svg">
<path d="M12 0.375C5.57812 0.375 0.375 5.57812 0.375 12C0.375 18.4219 5.57812 23.625 12 23.625C18.4219 23.625 23.625 18.4219 23.625 12C23.625 5.57812 18.4219 0.375 12 0.375ZM15.75 8.25C16.5469 8.25 17.25 8.95312 17.25 9.75C17.25 10.5938 16.5469 11.25 15.75 11.25C14.9062 11.25 14.25 10.5938 14.25 9.75C14.25 8.95312 14.9062 8.25 15.75 8.25ZM8.25 8.25C9.04688 8.25 9.75 8.95312 9.75 9.75C9.75 10.5938 9.04688 11.25 8.25 11.25C7.40625 11.25 6.75 10.5938 6.75 9.75C6.75 8.95312 7.40625 8.25 8.25 8.25ZM17.3438 16.2656C16.0312 17.8594 14.0625 18.75 12 18.75C9.89062 18.75 7.92188 17.8594 6.60938 16.2656C5.95312 15.4688 7.125 14.5312 7.73438 15.2812C8.8125 16.5469 10.3594 17.25 12 17.25C13.6406 17.25 15.1406 16.5469 16.2188 15.2812C16.8281 14.5312 18 15.4688 17.3438 16.2656Z"/>
</svg>
