<svg width="24" height="24" viewBox="0 0 24 24"  xmlns="http://www.w3.org/2000/svg">
<path d="M12 0.375C5.57812 0.375 0.375 5.57812 0.375 12C0.375 18.4219 5.57812 23.625 12 23.625C18.4219 23.625 23.625 18.4219 23.625 12C23.625 5.57812 18.4219 0.375 12 0.375ZM15.75 8.25C16.5469 8.25 17.25 8.95312 17.25 9.75C17.25 10.5938 16.5469 11.25 15.75 11.25C14.9062 11.25 14.25 10.5938 14.25 9.75C14.25 8.95312 14.9062 8.25 15.75 8.25ZM8.25 8.25C9.04688 8.25 9.75 8.95312 9.75 9.75C9.75 10.5938 9.04688 11.25 8.25 11.25C7.40625 11.25 6.75 10.5938 6.75 9.75C6.75 8.95312 7.40625 8.25 8.25 8.25ZM16.2188 18.5156C15.1406 17.25 13.5938 16.5 12 16.5C10.3594 16.5 8.8125 17.25 7.73438 18.5156C7.125 19.2656 5.95312 18.2812 6.60938 17.5312C7.92188 15.9375 9.89062 15 12 15C14.0625 15 16.0312 15.9375 17.3438 17.5312C18 18.2812 16.8281 19.2656 16.2188 18.5156Z" />
</svg>
