<svg width="20" height="23" viewBox="0 0 20 23"  xmlns="http://www.w3.org/2000/svg">
<path d="M13.8242 13.8125C12.5781 13.8125 12.0195 14.5 10 14.5C7.9375 14.5 7.37891 13.8125 6.13281 13.8125C2.95312 13.8125 0.375 16.4336 0.375 19.6133V20.6875C0.375 21.8477 1.27734 22.75 2.4375 22.75H17.5625C18.6797 22.75 19.625 21.8477 19.625 20.6875V19.6133C19.625 16.4336 17.0039 13.8125 13.8242 13.8125ZM17.5625 20.6875H2.4375V19.6133C2.4375 17.5508 4.07031 15.875 6.13281 15.875C6.77734 15.875 7.76562 16.5625 10 16.5625C12.1914 16.5625 13.1797 15.875 13.8242 15.875C15.8867 15.875 17.5625 17.5508 17.5625 19.6133V20.6875ZM10 13.125C13.3945 13.125 16.1875 10.375 16.1875 6.9375C16.1875 3.54297 13.3945 0.75 10 0.75C6.5625 0.75 3.8125 3.54297 3.8125 6.9375C3.8125 10.375 6.5625 13.125 10 13.125ZM10 2.8125C12.2344 2.8125 14.125 4.70312 14.125 6.9375C14.125 9.21484 12.2344 11.0625 10 11.0625C7.72266 11.0625 5.875 9.21484 5.875 6.9375C5.875 4.70312 7.72266 2.8125 10 2.8125Z" />
</svg>
