<svg width="22" height="20" viewBox="0 0 22 20" xmlns="http://www.w3.org/2000/svg">
<path d="M9.71875 8.45703L9.96484 12.3945C9.96484 12.6406 10.1406 12.7812 10.3867 12.7812H11.8281C12.0391 12.7812 12.25 12.6055 12.25 12.3945L12.4961 8.45703C12.4961 8.21094 12.3203 8 12.0742 8H10.1406C9.89453 8 9.71875 8.21094 9.71875 8.45703ZM12.6016 14.75C12.6016 13.9414 11.9336 13.2734 11.125 13.2734C10.2812 13.2734 9.64844 13.9414 9.64844 14.75C9.64844 15.5938 10.2812 16.2266 11.125 16.2266C11.9336 16.2266 12.6016 15.5938 12.6016 14.75ZM12.5664 2.09375C11.9336 1.00391 10.2812 0.96875 9.64844 2.09375L1.21094 16.7539C0.578125 17.8438 1.38672 19.25 2.6875 19.25H19.5273C20.8281 19.25 21.6367 17.8789 21.0039 16.7539L12.5664 2.09375ZM2.86328 17.2812L10.9141 3.28906C11.0195 3.14844 11.1953 3.14844 11.3008 3.28906L19.3516 17.2812C19.457 17.4219 19.3516 17.5625 19.1758 17.5625H3.03906C2.86328 17.5625 2.75781 17.4219 2.86328 17.2812Z" />
</svg>
