<svg width="16" height="17" viewBox="0 0 16 17" fill="none" xmlns="http://www.w3.org/2000/svg">
<path d="M15.4336 8.16602C15.375 9.69531 14.9941 10.9141 14.291 11.8223C13.5879 12.7305 12.6504 13.1846 11.4785 13.1846C10.998 13.1846 10.5732 13.082 10.2041 12.877C9.83496 12.666 9.54785 12.3701 9.34277 11.9893C8.76855 12.7627 7.99805 13.1494 7.03125 13.1494C6.46875 13.1494 5.97656 12.9854 5.55469 12.6572C5.13281 12.3232 4.82227 11.8516 4.62305 11.2422C4.42969 10.6328 4.37109 9.94141 4.44727 9.16797C4.62305 7.70312 5.09473 6.52539 5.8623 5.63477C6.62988 4.74414 7.57031 4.29883 8.68359 4.29883C9.54492 4.29883 10.2861 4.49805 10.9072 4.89648L11.4609 5.26562L11.0127 10.4248C10.9131 11.2393 11.1943 11.6465 11.8564 11.6465C12.3545 11.6465 12.7705 11.3301 13.1045 10.6973C13.4443 10.0586 13.6318 9.24414 13.667 8.25391C13.7666 6.29688 13.3594 4.78516 12.4453 3.71875C11.5371 2.65234 10.2041 2.11914 8.44629 2.11914C7.32715 2.11914 6.33105 2.40625 5.45801 2.98047C4.59082 3.54883 3.90234 4.35742 3.39258 5.40625C2.88867 6.44922 2.60449 7.63867 2.54004 8.97461C2.44629 11.0254 2.85645 12.5928 3.77051 13.6768C4.68457 14.7666 6.05566 15.3115 7.88379 15.3115C8.37598 15.3115 8.89746 15.2529 9.44824 15.1357C9.99902 15.0244 10.4473 14.8926 10.793 14.7402L11.1182 16.1992C10.7607 16.4336 10.2773 16.6211 9.66797 16.7617C9.06445 16.9082 8.45801 16.9814 7.84863 16.9814C6.24902 16.9814 4.89551 16.6738 3.78809 16.0586C2.68652 15.4492 1.86621 14.5439 1.32715 13.3428C0.788086 12.1416 0.547852 10.6855 0.606445 8.97461C0.676758 7.35742 1.04883 5.91016 1.72266 4.63281C2.40234 3.34961 3.32812 2.35937 4.5 1.66211C5.67773 0.958984 7.00488 0.607422 8.48145 0.607422C9.95801 0.607422 11.2324 0.915039 12.3047 1.53027C13.377 2.13965 14.1826 3.01855 14.7217 4.16699C15.2607 5.31543 15.498 6.64844 15.4336 8.16602ZM6.64453 9.16797C6.58008 9.92969 6.63867 10.5068 6.82031 10.8994C7.00781 11.2861 7.30664 11.4795 7.7168 11.4795C7.99219 11.4795 8.24414 11.3564 8.47266 11.1104C8.70703 10.8643 8.90039 10.5127 9.05273 10.0557L9.4043 6.04785C9.22852 6.00098 9.04688 5.97754 8.85938 5.97754C8.20312 5.97754 7.69629 6.23535 7.33887 6.75098C6.9873 7.26074 6.75586 8.06641 6.64453 9.16797Z" fill="#0E65DD"/>
</svg>
