<svg width="24" height="24" viewBox="0 0 24 24"  xmlns="http://www.w3.org/2000/svg">
<path d="M18 11.25C18 10.9688 17.7188 10.6875 17.4375 10.6875H13.3125V6.5625C13.3125 6.28125 13.0312 6 12.75 6H11.25C10.9219 6 10.6875 6.28125 10.6875 6.5625V10.6875H6.5625C6.23438 10.6875 6 10.9688 6 11.25V12.75C6 13.0781 6.23438 13.3125 6.5625 13.3125H10.6875V17.4375C10.6875 17.7656 10.9219 18 11.25 18H12.75C13.0312 18 13.3125 17.7656 13.3125 17.4375V13.3125H17.4375C17.7188 13.3125 18 13.0781 18 12.75V11.25ZM23.625 12C23.625 5.57812 18.4219 0.375 12 0.375C5.57812 0.375 0.375 5.57812 0.375 12C0.375 18.4219 5.57812 23.625 12 23.625C18.4219 23.625 23.625 18.4219 23.625 12ZM21.375 12C21.375 17.2031 17.1562 21.375 12 21.375C6.79688 21.375 2.625 17.2031 2.625 12C2.625 6.84375 6.79688 2.625 12 2.625C17.1562 2.625 21.375 6.84375 21.375 12Z" />
</svg>
