<svg width="22" height="21" viewBox="0 0 22 21"  xmlns="http://www.w3.org/2000/svg">
<path d="M20.668 6.83984C20.4531 6.58203 20.1094 6.53906 19.8945 6.79688C19.7227 6.92578 19.5078 7.14062 19.1211 7.52734C18.9492 7.69922 18.9492 7.95703 19.0781 8.17188C19.5938 8.90234 19.8945 9.80469 19.9375 10.75C19.9375 13.2422 17.832 15.2188 15.3828 15.2188H7.5625V12.4688C7.5625 12.0391 7.00391 11.7812 6.66016 12.125L2.87891 15.9062C2.66406 16.1211 2.66406 16.4219 2.87891 16.6367L6.66016 20.418C7.00391 20.7617 7.51953 20.5039 7.5625 20.0312V17.2812H15.3828C18.9922 17.2812 21.957 14.4023 21.957 10.793C22 9.33203 21.4844 7.95703 20.668 6.83984ZM2.0625 10.793C2.01953 8.30078 4.125 6.28125 6.57422 6.28125H14.4375V9.03125C14.4375 9.50391 14.9531 9.76172 15.2969 9.41797L19.0781 5.63672C19.293 5.42188 19.293 5.12109 19.0781 4.90625L15.2969 1.125C14.9531 0.78125 14.4375 1.03906 14.4375 1.46875V4.21875H6.57422C2.96484 4.21875 0 7.14062 0 10.75C-0.0429688 12.2109 0.472656 13.5859 1.28906 14.7031C1.50391 14.9609 1.84766 15.0039 2.0625 14.7461C2.23438 14.6172 2.44922 14.4023 2.83594 14.0156C3.00781 13.8438 3.00781 13.5859 2.87891 13.3711C2.36328 12.6406 2.0625 11.7383 2.0625 10.793Z" />
</svg>
