<svg width="22" height="17" viewBox="0 0 22 17"  xmlns="http://www.w3.org/2000/svg">
<path d="M19.9375 3.25C20.5104 3.25 20.9974 3.45052 21.3984 3.85156C21.7995 4.2526 22 4.73958 22 5.3125V14.9375C22 15.5104 21.7995 15.9974 21.3984 16.3984C20.9974 16.7995 20.5104 17 19.9375 17H2.0625C1.48958 17 1.0026 16.7995 0.601562 16.3984C0.200521 15.9974 0 15.5104 0 14.9375V2.5625C0 1.98958 0.200521 1.5026 0.601562 1.10156C1.0026 0.700521 1.48958 0.5 2.0625 0.5H8.37891C8.7513 0.5 9.06641 0.628906 9.32422 0.886719L11.6875 3.25H19.9375ZM19.9375 14.9375V5.3125H11.3867C11.0143 5.3125 10.6992 5.18359 10.4414 4.92578L8.07812 2.5625H2.0625V14.9375H19.9375Z" />
</svg>
