<svg width="27" height="21" viewBox="0 0 27 21"  xmlns="http://www.w3.org/2000/svg">
<path d="M26.168 10.0156L23.5625 7.85938V3.54688C23.5625 3.36719 23.3828 3.1875 23.2031 3.1875H21.7656C21.541 3.23242 21.4062 3.36719 21.4062 3.54688V6.10742L15.0723 0.896484C14.7129 0.582031 13.9941 0.357422 13.5 0.357422C12.9609 0.357422 12.2422 0.582031 11.8828 0.896484L0.787109 10.0156C0.652344 10.1504 0.5625 10.375 0.5625 10.5547C0.5625 10.6895 0.607422 10.9141 0.697266 11.0039L1.19141 11.5879C1.28125 11.7227 1.55078 11.8125 1.73047 11.8125C1.86523 11.8125 2.08984 11.7676 2.17969 11.6777L3.4375 10.6445V19C3.4375 19.8086 4.06641 20.4375 4.875 20.4375H10.625C11.3887 20.4375 12.0176 19.8086 12.0625 19V14.3281H14.9375V19C14.9375 19.8086 15.5664 20.4375 16.375 20.4375H22.125C22.8887 20.4375 23.5176 19.8086 23.5625 19.0449V10.6445L24.7754 11.6777C24.8652 11.7676 25.0898 11.8574 25.2246 11.8574C25.4043 11.8574 25.6738 11.7227 25.8086 11.5879L26.2578 11.0039C26.3477 10.9141 26.4375 10.6895 26.4375 10.5547C26.4375 10.375 26.3027 10.1504 26.168 10.0156ZM21.3613 18.2812H17.0938V13.6094C17.0488 12.8457 16.4199 12.2168 15.6562 12.1719H11.3438C10.5352 12.2168 9.90625 12.8457 9.90625 13.6094V18.2812H5.59375V8.89258L13.5 2.37891L21.4062 8.89258L21.3613 18.2812Z" />
</svg>
