<svg width="18" height="19" viewBox="0 0 18 19" fill="none" xmlns="http://www.w3.org/2000/svg">
<path d="M17.875 8.5625C16.1875 5.25 12.8125 3 9 3C5.15625 3 1.78125 5.25 0.09375 8.5625C0.03125 8.6875 0 8.875 0 9.03125C0 9.15625 0.03125 9.34375 0.09375 9.46875C1.78125 12.7812 5.15625 15 9 15C12.8125 15 16.1875 12.7812 17.875 9.46875C17.9375 9.34375 17.9688 9.15625 17.9688 9C17.9688 8.875 17.9375 8.6875 17.875 8.5625ZM9 13.5C6.5 13.5 4.5 11.5 4.5 9C4.5 6.53125 6.5 4.5 9 4.5C11.4688 4.5 13.5 6.53125 13.5 9V9.03125C13.5 11.5 11.4688 13.5 9 13.5ZM9 6C8.75 6.03125 8.40625 6.0625 8.1875 6.125C8.34375 6.34375 8.5 6.75 8.5 7.03125C8.5 7.84375 7.8125 8.5 7 8.5C6.71875 8.5 6.3125 8.375 6.09375 8.21875C6.03125 8.4375 6 8.78125 6 9C6 10.6562 7.34375 12 9 12C10.6562 12 12 10.6562 12 9C12 7.34375 10.6562 6 9 6Z" fill="#9DBBE4"/>
<path d="M15.8295 1L1.00001 17.948" stroke="#9DBBE4" stroke-linecap="round"/>
</svg>
