<svg width="24" height="24" viewBox="0 0 24 24"  xmlns="http://www.w3.org/2000/svg">
<path d="M23.3203 21.9434L17.8848 16.5078C17.75 16.418 17.6152 16.3281 17.4805 16.3281H16.8965C18.2891 14.7109 19.1875 12.5547 19.1875 10.2188C19.1875 5.09766 14.9648 0.875 9.84375 0.875C4.67773 0.875 0.5 5.09766 0.5 10.2188C0.5 15.3848 4.67773 19.5625 9.84375 19.5625C12.1797 19.5625 14.291 18.709 15.9531 17.3164V17.9004C15.9531 18.0352 15.998 18.1699 16.0879 18.3047L21.5234 23.7402C21.748 23.9648 22.1074 23.9648 22.2871 23.7402L23.3203 22.707C23.5449 22.5273 23.5449 22.168 23.3203 21.9434ZM9.84375 17.4062C5.8457 17.4062 2.65625 14.2168 2.65625 10.2188C2.65625 6.26562 5.8457 3.03125 9.84375 3.03125C13.7969 3.03125 17.0312 6.26562 17.0312 10.2188C17.0312 14.2168 13.7969 17.4062 9.84375 17.4062Z" />
</svg>
