<svg width="22" height="22" viewBox="0 0 22 22"  xmlns="http://www.w3.org/2000/svg">
<path d="M19.4219 9.93359L20.7969 9.16016C21.1836 8.94531 21.3984 8.47266 21.2695 8C20.7969 6.19531 19.8086 4.5625 18.5195 3.23047C18.1758 2.92969 17.6602 2.84375 17.2734 3.05859L15.8984 3.875C15.5547 3.61719 14.9102 3.23047 14.4805 3.05859V1.46875C14.4805 1.03906 14.1367 0.566406 13.707 0.480469C11.9453 0.0078125 10.0117 0.0078125 8.25 0.480469C7.77734 0.609375 7.47656 0.996094 7.47656 1.46875V3.05859C7.04688 3.23047 6.40234 3.61719 6.05859 3.875L4.68359 3.05859C4.29688 2.84375 3.78125 2.92969 3.4375 3.23047C2.14844 4.5625 1.16016 6.19531 0.6875 8C0.558594 8.47266 0.773438 8.94531 1.16016 9.16016L2.53516 9.93359C2.49219 10.1914 2.49219 10.5352 2.49219 10.75C2.49219 11.0078 2.49219 11.3516 2.53516 11.5664L1.16016 12.3828C0.773438 12.5977 0.558594 13.0703 0.6875 13.543C1.16016 15.3477 2.14844 16.9805 3.4375 18.3125C3.78125 18.6133 4.29688 18.6992 4.68359 18.4844L6.05859 17.668C6.40234 17.9258 7.04688 18.3125 7.47656 18.4844V20.0742C7.47656 20.5039 7.82031 20.9766 8.25 21.0625C10.0117 21.5352 11.9453 21.5352 13.707 21.0625C14.1797 20.9336 14.4805 20.5469 14.4805 20.0742V18.4844C14.9102 18.3125 15.5547 17.9258 15.8984 17.668L17.2734 18.4844C17.6602 18.6992 18.1758 18.6133 18.5195 18.3125C19.8086 16.9805 20.7969 15.3477 21.2695 13.543C21.3984 13.0703 21.1836 12.5977 20.7969 12.3828L19.4219 11.5664C19.4648 11.0508 19.4648 10.4922 19.4219 9.93359ZM17.1445 12.6836L19.0352 13.7578C18.7773 14.5312 18.0898 15.6484 17.5742 16.25L15.6836 15.1758C14.3086 16.3359 14.1367 16.4648 12.418 17.0664V19.2578C12.0312 19.3008 11.3867 19.3867 11 19.3867C10.5703 19.3867 9.92578 19.3008 9.53906 19.2578V17.0664C7.82031 16.4648 7.60547 16.3359 6.27344 15.1758L4.38281 16.25C3.86719 15.6484 3.17969 14.5312 2.92188 13.7578L4.8125 12.6836C4.46875 10.8789 4.46875 10.6641 4.8125 8.85938L2.92188 7.78516C3.26562 6.88281 3.73828 6.02344 4.38281 5.29297L6.27344 6.36719C7.64844 5.20703 7.82031 5.07812 9.53906 4.47656V2.28516C9.92578 2.24219 10.5703 2.15625 11 2.15625C11.3867 2.15625 12.0312 2.24219 12.418 2.28516V4.47656C14.1367 5.07812 14.3516 5.20703 15.6836 6.36719L17.5742 5.29297C18.0898 5.89453 18.7773 7.01172 19.0352 7.78516L17.1445 8.85938C17.4883 10.6641 17.4883 10.8789 17.1445 12.6836ZM11 6.625C8.72266 6.625 6.875 8.51562 6.875 10.75C6.875 13.0273 8.72266 14.875 11 14.875C13.2344 14.875 15.125 13.0273 15.125 10.75C15.125 8.51562 13.2344 6.625 11 6.625ZM11 12.8125C9.83984 12.8125 8.9375 11.9102 8.9375 10.75C8.9375 9.63281 9.83984 8.6875 11 8.6875C12.1172 8.6875 13.0625 9.63281 13.0625 10.75C13.0625 11.9102 12.1172 12.8125 11 12.8125Z" />
</svg>
