<svg width="22" height="22" viewBox="0 0 22 22"  xmlns="http://www.w3.org/2000/svg">
<path d="M11 0.09375C5.11328 0.09375 0.34375 4.90625 0.34375 10.75C0.34375 16.6367 5.11328 21.4062 11 21.4062C16.8438 21.4062 21.6562 16.6367 21.6562 10.75C21.6562 4.90625 16.8438 0.09375 11 0.09375ZM11 19.3438C6.23047 19.3438 2.40625 15.5195 2.40625 10.75C2.40625 6.02344 6.23047 2.15625 11 2.15625C15.7266 2.15625 19.5938 6.02344 19.5938 10.75C19.5938 15.5195 15.7266 19.3438 11 19.3438ZM15.5977 8.38672C15.5977 6.23828 13.3203 4.5625 11.2148 4.5625C9.19531 4.5625 7.90625 5.42188 6.91797 6.92578C6.74609 7.14062 6.78906 7.44141 7.00391 7.61328L8.20703 8.51562C8.42188 8.6875 8.76562 8.64453 8.9375 8.42969C9.58203 7.61328 10.0547 7.14062 11.043 7.14062C11.8164 7.14062 12.7617 7.61328 12.7617 8.38672C12.7617 8.94531 12.2891 9.20312 11.5156 9.63281C10.6562 10.1484 9.49609 10.75 9.49609 12.2969V12.6406C9.49609 12.9414 9.71094 13.1562 10.0117 13.1562H11.9453C12.2461 13.1562 12.4609 12.9414 12.4609 12.6406V12.3828C12.4609 11.3086 15.5977 11.2656 15.5977 8.38672ZM12.8047 15.5625C12.8047 14.5742 11.9883 13.7578 11 13.7578C9.96875 13.7578 9.19531 14.5742 9.19531 15.5625C9.19531 16.5938 9.96875 17.3672 11 17.3672C11.9883 17.3672 12.8047 16.5938 12.8047 15.5625Z" />
</svg>
